<svg width="24" height="21" viewBox="0 0 24 21" fill="none" xmlns="http://www.w3.org/2000/svg">
<g id="Property 1=Default">
<circle id="Ellipse 2" cx="10.5" cy="10.5" r="4.5" fill="#3E3E3E"/>
<circle id="Ellipse 3" cx="19.5" cy="10.5" r="4.5" fill="#3E3E3E"/>
<path id="Polygon 1" d="M10.5 0L12.6651 3.75H8.33494L10.5 0Z" fill="#3E3E3E"/>
<path id="Polygon 3" d="M17.9246 3.07538L16.8039 7.25797L13.742 4.1961L17.9246 3.07538Z" fill="#3E3E3E"/>
<path id="Polygon 5" d="M21 10.5L17.25 12.6651L17.25 8.33494L21 10.5Z" fill="#3E3E3E"/>
<path id="Polygon 7" d="M17.9246 17.9246L13.742 16.8039L16.8039 13.742L17.9246 17.9246Z" fill="#3E3E3E"/>
<path id="Polygon 2" d="M10.5 21L8.33494 17.25L12.6651 17.25L10.5 21Z" fill="#3E3E3E"/>
<path id="Polygon 4" d="M3.07537 17.9246L4.19609 13.742L7.25795 16.8039L3.07537 17.9246Z" fill="#3E3E3E"/>
<path id="Polygon 6" d="M-1.56095e-07 10.5L3.75 8.33494L3.75 12.6651L-1.56095e-07 10.5Z" fill="#3E3E3E"/>
<path id="Polygon 8" d="M3.07538 3.07537L7.25797 4.19609L4.1961 7.25795L3.07538 3.07537Z" fill="#3E3E3E"/>
</g>
</svg>
